<svg id="Capa_1" enable-background="new 0 0 512 512" height="512" viewBox="0 0 512 512" width="512" xmlns="http://www.w3.org/2000/svg"><g><path d="m256 0c-141.159 0-256 114.841-256 256s114.841 256 256 256 256-114.841 256-256-114.841-256-256-256zm0 482c-124.617 0-226-101.383-226-226s101.383-226 226-226 226 101.383 226 226-101.383 226-226 226z"/><path d="m256 60c-108.075 0-196 87.925-196 196s87.925 196 196 196 196-87.925 196-196-87.925-196-196-196zm0 362c-91.533 0-166-74.467-166-166s74.467-166 166-166 166 74.467 166 166-74.467 166-166 166z"/><path d="m362.773 170.439-21.212-21.212-85.561 85.56-85.206-85.206-21.213 21.213 85.206 85.206-21.213 21.213 21.213 21.213 21.213-21.213 21.213 21.213 21.213-21.213-21.213-21.213z"/><path d="m241 120h30v30h-30z"/><path d="m241 362h30v30h-30z"/><path d="m120 241h30v30h-30z"/><path d="m362 241h30v30h-30z"/></g></svg>