<?xml version="1.0" encoding="iso-8859-1"?>
<!-- Generator: Adobe Illustrator 19.0.0, SVG Export Plug-In . SVG Version: 6.00 Build 0)  -->
<svg version="1.1" id="Layer_1" xmlns="http://www.w3.org/2000/svg" xmlns:xlink="http://www.w3.org/1999/xlink" x="0px" y="0px"
	 viewBox="0 0 512 512" style="enable-background:new 0 0 512 512;" xml:space="preserve">
<g>
	<g>
		<g>
			<path d="M472.354,128H207.302c-20.052,0-37.615,14.24-41.76,33.875l-36.688,174.292c-0.563,2.677-0.854,5.427-0.854,8.188
				C128,366.219,145.781,384,167.646,384h265.052c20.052,0,37.615-14.24,41.76-33.875l36.688-174.292
				c0.563-2.677,0.854-5.427,0.854-8.188C512,145.781,494.219,128,472.354,128z M207.302,149.333H472.03
				c-37.053,25.724-118.544,82.258-148.988,103.115c-4.125,2.823-12.625,5.583-17.438,1.031
				c-21.904-20.602-79.698-75.913-106.967-102.051C201.335,150.201,204.206,149.333,207.302,149.333z M490.271,171.417
				l-36.688,174.302c-2.073,9.823-10.854,16.948-20.885,16.948H167.646c-10.094,0-18.313-8.219-18.313-18.313
				c0-1.271,0.135-2.531,0.396-3.771l36.165-171.822c28.121,26.936,83.732,80.158,105.074,100.249
				c5.906,5.563,13.375,8.51,21.594,8.51c7.604,0,15.396-2.583,22.542-7.469c32.09-21.99,120.888-83.612,154.625-107.039
				c0.408,1.516,0.938,2.991,0.938,4.633C490.667,168.917,490.531,170.177,490.271,171.417z"/>
			<path d="M96,341.333H10.667C4.771,341.333,0,346.104,0,352c0,5.896,4.771,10.667,10.667,10.667H96
				c5.896,0,10.667-4.771,10.667-10.667C106.667,346.104,101.896,341.333,96,341.333z"/>
			<path d="M106.667,277.333h-96C4.771,277.333,0,282.104,0,288s4.771,10.667,10.667,10.667h96c5.896,0,10.667-4.771,10.667-10.667
				S112.563,277.333,106.667,277.333z"/>
			<path d="M117.333,213.333H10.667C4.771,213.333,0,218.104,0,224s4.771,10.667,10.667,10.667h106.667
				c5.896,0,10.667-4.771,10.667-10.667S123.229,213.333,117.333,213.333z"/>
			<path d="M10.667,170.667H128c5.896,0,10.667-4.771,10.667-10.667s-4.771-10.667-10.667-10.667H10.667
				C4.771,149.333,0,154.104,0,160S4.771,170.667,10.667,170.667z"/>
		</g>
	</g>
</g>
<g>
</g>
<g>
</g>
<g>
</g>
<g>
</g>
<g>
</g>
<g>
</g>
<g>
</g>
<g>
</g>
<g>
</g>
<g>
</g>
<g>
</g>
<g>
</g>
<g>
</g>
<g>
</g>
<g>
</g>
</svg>
