<svg id="color" enable-background="new 0 0 24 24" height="512" viewBox="0 0 24 24" width="512" xmlns="http://www.w3.org/2000/svg"><path d="m15 6.5c-.552 0-1-.448-1-1v-1.5h-4v1.5c0 .552-.448 1-1 1s-1-.448-1-1v-1.5c0-1.103.897-2 2-2h4c1.103 0 2 .897 2 2v1.5c0 .552-.448 1-1 1z" fill="#455a64"/><path d="m21.25 5h-18.5c-1.52 0-2.75 1.23-2.75 2.75v11.5c0 1.52 1.23 2.75 2.75 2.75h18.5c1.52 0 2.75-1.23 2.75-2.75v-11.5c0-1.52-1.23-2.75-2.75-2.75z" fill="#607d8b"/><path d="m24 11v1.5h-24v-1.5z" fill="#455a64"/><path d="m12 2h-2c-1.103 0-2 .897-2 2v1h2v-1h2z" fill="#3c4e57"/><path d="m12 5h-2-2-5.25c-1.52 0-2.75 1.23-2.75 2.75v11.5c0 1.52 1.23 2.75 2.75 2.75h9.25v-9.5h-12v-1.5h12z" fill="#546d79"/><path d="m12 11h-12v1.5h12z" fill="#3c4e57"/><path d="m17.25 14.167c-.414 0-.75-.336-.75-.75v-3.667c0-.414.336-.75.75-.75s.75.336.75.75v3.667c0 .414-.336.75-.75.75z" fill="#eceff1"/><path d="m6.75 14.166c-.414 0-.75-.336-.75-.75v-3.666c0-.414.336-.75.75-.75s.75.336.75.75v3.667c0 .414-.336.749-.75.749z" fill="#eceff1"/><g fill="#cdd0d2"><path d="m6.75 9c-.414 0-.75.336-.75.75v3.667c0 .414.336.75.75.75z"/><path d="m17.25 9c-.414 0-.75.336-.75.75v3.667c0 .414.336.75.75.75z"/></g></svg>